# xmcd
#
# Track frame offsets: 
#        150
#        19016
#        42059
#        59403
#        83188
#        99957
#        122890
#        143889
#        166566
#        185351
#
# Disc length: 2716 seconds
#
# Revision: 0
# Processed by: cddbd v1.5.2PL0 Copyright (c) Steve Scherf et al.
# Submitted via: ExactAudioCopyFreeDBPlugin 1.0
#
DISCID=760a9a0a
DTITLE=眾藝術家 - 世界風情音樂系列：俄羅斯民謠音樂
DYEAR=1900
DGENRE=
TTITLE0=莫斯科郊外的晚上
TTITLE1=三套車
TTITLE2=瑪麗諾之歌
TTITLE3=山楂樹
TTITLE4=紅梅花兒開
TTITLE5=斯基瓦格旋律
TTITLE6=紡織姑娘
TTITLE7=春天的花園花兒多美麗
TTITLE8=遙遠的地方
TTITLE9=哥薩克
EXTD=
EXTT0=
EXTT1=
EXTT2=
EXTT3=
EXTT4=
EXTT5=
EXTT6=
EXTT7=
EXTT8=
EXTT9=
PLAYORDER=
